<svg xmlns="http://www.w3.org/2000/svg" width="188" height="34" viewBox="0 0 188 34"><g><g><g><path fill="#fff" d="M7.284 18.568c-.183 1.016-.728 3.924 3.437 3.924.597 0 3.745 0 4.359-2.871.252-1.192-.07-1.997-1.651-2.44l-5.856-1.627c-1.655-.455-5.917-1.626-4.795-6.913C3.661 4.529 7.54.71 15.104.71c9.874 0 9.159 5.356 8.618 8.056h-7.105c.163-.773.777-3.506-2.582-3.506-2.033 0-3.575 1.16-3.896 2.664-.407 1.855 1.05 2.31 2.009 2.59l4.473 1.22c3.168.883 6.934 1.932 5.795 7.276-1.195 5.653-6.555 8.174-12.903 8.174-2.623 0-6.775-.407-8.54-3.013-1.42-2.03-.923-4.518-.728-5.604z"/></g><g><path fill="#fff" d="M33.64 9.044l-2.18 10.26c-.21.98-.731 3.432 1.896 3.432 2.765 0 3.302-2.521 3.51-3.501L39.04 9.043h6.584l-3.09 14.535c-.249 1.505-.285 1.68-.542 3.046h-6.486l.44-2.733c-2.388 2.847-4.64 3.046-6.182 3.046-6.1 0-5.494-4.62-4.779-7.983l2.107-9.91z"/></g><g><path fill="#fff" d="M55.385 9.044l-.46 2.488a8.276 8.276 0 0 1 6.406-2.944c2.94 0 7.206 1.684 5.673 8.898-1.452 6.812-5.869 9.488-9.862 9.488-3.115 0-4.185-1.578-4.766-2.44l-1.863 8.755h-6.592l4.538-21.362c.338-1.924.35-2.135.472-2.871zm.35 14.01c2.765 0 3.965-3.014 4.526-5.641.354-1.68.72-5.043-2.082-5.043-3.363 0-4.29 4.38-4.506 5.393-.301 1.403-.952 5.286 2.062 5.286"/></g><g><path fill="#fff" d="M70.66 12.793l.622-3.75h6.393l-.671 3.66c2.338-3.92 5.502-3.818 7.002-3.781l-1.22 5.636a13.508 13.508 0 0 0-1.378-.106c-4.026 0-5.19 2.847-5.592 4.73L74.23 26.64h-6.547z"/></g><g><path fill="#fff" d="M89.667 15.615c.248-.833 1.098-3.68 3.97-3.68 2.87 0 2.517 2.643 2.37 3.66zm11.777 3.538c.655-3.082.802-4.762.354-6.266-.663-2.477-2.537-4.474-7.417-4.474-6.479 0-10.163 3.819-11.412 9.7-1.236 5.815 1.4 8.897 7.528 8.897 4.555 0 9.048-1.716 10.48-6.128h-6.145a3.501 3.501 0 0 1-3.554 2.554c-3.347 0-2.64-3.327-2.44-4.27z"/></g><g><path fill="#fff" d="M105.576 13.037c.09-.407.598-3.465.712-3.994h6.507l-.553 2.908a8.011 8.011 0 0 1 6.66-3.326c1.017 0 4.34.175 4.84 3.253a8.76 8.76 0 0 1 6.913-3.294c3.295 0 4.506 1.716 4.954 2.733.626 1.504.17 3.66-.26 5.693l-2.034 9.63h-6.604l2.114-9.947c.379-1.785.814-3.884-1.801-3.884a3.298 3.298 0 0 0-2.761 1.468c-.301.407-.562.98-.883 2.49l-2.098 9.873h-6.58l2.127-10.016c.333-1.574.813-3.815-1.814-3.815-2.24 0-3.196 1.855-3.615 3.815l-2.127 10h-6.584z"/></g><g><path fill="#fff" d="M144.673 15.615c.248-.833 1.094-3.68 3.965-3.68 2.871 0 2.518 2.643 2.371 3.66zm11.773 3.538c.66-3.082.806-4.762.354-6.266-.663-2.477-2.513-4.474-7.417-4.474-6.479 0-10.159 3.819-11.412 9.7-1.232 5.815 1.403 8.897 7.532 8.897 4.559 0 9.032-1.716 10.464-6.128h-6.129a3.497 3.497 0 0 1-3.554 2.554c-3.351 0-2.644-3.327-2.44-4.27z"/></g><g><path fill="#fff" d="M176.495 13.318h-4.77c-5.189-.025-7.572-5.694-7.572-5.694l-3.29-6.283h9.032l3.253 7.845 6.796-7.845H188l-11.46 11.977z"/></g><g><path fill="#fff" d="M179.891 20.231l3.188 6.405h-8.946l-2.876-7.153c1.236.457 2.539.703 3.856.728h4.794"/></g><g><path fill="#fff" d="M169.647 18.645l-6.645 7.959h-8.194l11.386-12.095a9.825 9.825 0 0 0 3.453 4.136"/></g></g></g></svg>